<!-- Generated by IcoMoon.io -->
<svg version="1.1" xmlns="http://www.w3.org/2000/svg" width="160" height="160" viewBox="0 0 160 160">
<title></title>
<g id="icomoon-ignore">
</g>
<path fill="#141614" d="M71.016 53.135l71.538 26.553-71.466-46.782z"></path>
<path fill="#151716" d="M142.554 79.688l-71.733 27.268-0.177 20.57 0.008 0.007 71.902-47.845z"></path>
<path fill="#135f60" d="M71.089 32.906l71.466 46.782-39.031-77.88z"></path>
<path fill="#133d3e" d="M142.554 79.688l-71.902 47.845 32.961 30.659z"></path>
<path fill="#114e52" d="M70.822 106.955l71.732-27.268-71.538-26.553z"></path>
<path fill="#1a6b6d" d="M70.822 106.955l0.194-53.821-15.075-5.881-35.911 33.326 35.109 32.524 15.683-6.148z"></path>
<path fill="#16201f" d="M55.94 47.253l15.075 5.881 0.073-20.227z"></path>
<path fill="#171f1f" d="M70.822 106.955l-15.683 6.148 15.505 14.422z"></path>
<path fill="#166568" d="M70.644 127.538l-53.198-0.267 13.723 30.921h72.445l-32.97-30.653z"></path>
<path fill="#1e797e" d="M17.713 32.728l53.376 0.179 32.436-31.099h-72.266l-13.545 30.92z"></path>
<path fill="#1c3232" d="M71.089 32.906l-53.376-0.178 38.227 14.525z"></path>
<path fill="#1b2828" d="M55.138 113.104l-37.692 14.167 53.197 0.254-15.505-14.422z"></path>
</svg>
