<!-- Generated by IcoMoon.io -->
<svg version="1.1" xmlns="http://www.w3.org/2000/svg" width="164" height="160" viewBox="0 0 164 160">
<title></title>
<g id="icomoon-ignore">
</g>
<path fill="#001d26" d="M6.818 6.838h150.427v146.325h-150.427v-146.325z"></path>
<path fill="#00c8ff" d="M-0.020 0v160h164.103v-160h-164.103zM6.818 6.838h150.427v146.325h-150.427v-146.325zM39.638 37.47c0-0.479 0.957-0.82 1.504-0.82 4.376-0.205 10.872-0.342 17.641-0.342 18.94 0 26.325 10.393 26.325 23.727 0 17.367-12.581 24.82-28.034 24.82-2.598 0-3.487-0.137-5.333-0.137v26.256c0 0.547-0.205 0.82-0.82 0.82h-10.462c-0.547 0-0.82-0.205-0.82-0.82v-73.504zM51.809 73.778c1.573 0.137 2.803 0.137 5.538 0.137 8 0 15.521-2.803 15.521-13.675 0-8.684-5.402-13.060-14.496-13.060-2.735 0-5.333 0.137-6.564 0.205v26.393zM110.612 65.641c-5.402 0-7.248 2.735-7.248 4.991 0 2.462 1.231 4.171 8.479 7.932 10.735 5.197 14.085 10.188 14.085 17.504 0 10.94-8.342 16.82-19.624 16.82-5.949 0-11.077-1.231-14.017-2.94-0.479-0.205-0.547-0.547-0.547-1.094v-10.051c0-0.684 0.342-0.889 0.82-0.547 4.308 2.803 9.231 4.034 13.744 4.034 5.402 0 7.658-2.256 7.658-5.333 0-2.462-1.573-4.65-8.479-8.205-9.709-4.65-13.744-9.368-13.744-17.231 0-8.82 6.906-16.137 18.872-16.137 5.88 0 9.983 0.889 12.239 1.915 0.547 0.342 0.684 0.889 0.684 1.367v9.367c0 0.547-0.342 0.889-1.026 0.684-3.009-1.915-7.453-3.077-11.898-3.077v0z"></path>
</svg>
