<?xml version="1.0" encoding="utf-8"?>
<!-- Generator: Adobe Illustrator 24.0.0, SVG Export Plug-In . SVG Version: 6.00 Build 0)  -->
<svg version="1.1" id="Layer_1" 
    xmlns="http://www.w3.org/2000/svg" 
    xmlns:xlink="http://www.w3.org/1999/xlink" x="0px" y="0px" viewBox="0 0 565 565" style="enable-background:new 0 0 565 565;" xml:space="preserve">
    <g transform="translate(0.000000,565.000000) scale(0.100000,-0.100000)">
        <path d="M515,5208l-27-24c0,0,1182-4790,1182-4804c0-25,39-70,60-70c26,0,3616,3465,3621,3478c14,36-11,57-95,82
		c-39,12-4681,1350-4693,1354C548,5229,534,5224,515,5208z M705,5070c17-4,915-266,915-275c0-6-729-715-737-715
		c-5,0-253,991-253,998c0,10,7,12,23,7C665,5082,689,5075,705,5070z M2803,4461c4-4-717-707-722-709c-12-4-251,960-251,973
		c0,8,4,15,9,15C1845,4740,2799,4465,2803,4461z M1726,4683c4-16,232-949,224-957c-6-6-957,267-965,275c-7,7,716,709,725,709
		C1715,4710,1723,4698,1726,4683z M3977,4118c13-10,12-14-5-27c-11-9-708-676-715-676c-11,0-242,930-247,943c-11,25-6,42,12,42
		C3029,4400,3963,4130,3977,4118z M3132,3388c-4-4-961,269-967,274c-6,6,719,707,726,708C2894,4370,3135,3392,3132,3388z M5157,3790
		c41,0-699-725-712-728c-15-4-255,981-255,987C4190,4064,5149,3790,5157,3790z M4312,3087c6-20,8-40,5-44c-4-3-963,269-970,276
		c-6,6,718,711,724,711C4075,4030,4306,3108,4312,3087z M1920,3601c0-4-730-707-739-709c-13-2-20,11-30,60c-7,35-221,901-221,920
		C930,3895,1920,3609,1920,3601z M3095,3264c0-14-710-704-723-704c-8,0-222,862-236,913s-14,77-1,77C2137,3550,3095,3273,3095,3264z
		 M2256,2533c9-31-5-30-135,8c-58,17-856,250-858,256c-2,5,741,722,745,719C2011,3512,2252,2545,2256,2533z M4300,2920
		c0-4-738-720-748-720c-5,0-252,987-252,998C3300,3214,4300,2923,4300,2920z M3436,2172c-3-5-991,279-993,284c-2,6,728,713,736,712
		C3189,3166,3439,2177,3436,2172z M1296,2665c62-19,892-259,899-266s-691-684-703-698c-8-10-15-12-22-5c-6,6-248,969-244,976
		C1233,2683,1240,2682,1296,2665z M3372,2070c41,0,27-27-58-109c-49-47-605-584-615-595c-20-21-49-15-49,10c0,15-230,946-225,954
		C2429,2337,3363,2070,3372,2070z M2541,1337c-5-5-960,267-968,271c-10,6,717,711,723,712C2303,2320,2546,1342,2541,1337z
		 M2520,1206c0-7-749-721-754-716c-9,9-255,1004-252,1009C1517,1503,2520,1219,2520,1206z"/>
    </g>
</svg>
