<!-- Generated by IcoMoon.io -->
<svg version="1.1" xmlns="http://www.w3.org/2000/svg" width="160" height="160" viewBox="0 0 160 160">
<title></title>
<g id="icomoon-ignore">
</g>
<path fill="lightgrey" d="M80 0c-44.18 0-80 35.82-80 80s35.82 80 80 80 80-35.82 80-80c0-44.18-35.82-80-80-80zM80 12.307c37.3 0.047 67.52 30.3 67.52 67.607 0 37.34-30.267 67.607-67.607 67.607s-67.607-30.267-67.607-67.607c0-18.667 7.567-35.567 19.8-47.8 12.247-12.233 29.16-19.8 47.84-19.8h0.047zM80 30.773c-29.28 5.16-55.387 32.16-55.387 61.533 14.327-25.293 23.893-27.113 26.54-27.113s4.040 1.373 4.040 4.42v37.693c0 4.687-9.107 3.92-12.12 3.46 11.133 16.567 36.927 18.467 36.927 18.467l12.307-12.307 12.307 6.153c19.427-8.893 30.767-27.933 30.767-30.767-4.673 5.787-10.973 10.1-18.207 12.24l-0.26 0.067c-1.633 0-6.153-0.84-6.153-3.080v-44.62c0-3.873 8.947-15.693 12.307-20-22.213 5.82-28.653 15.96-28.653 15.96s-1.687-3.653-8.267-3.653c3.34 3.153 5.587 7.427 6.147 12.213l0.007 0.093v37.693c-3.5 2.487-7.627 4.353-12.087 5.34l-0.227 0.040c-4.267 0-6.347-1.733-6.347-5s0.193-44.227 0.193-44.227-6.153 2.26-6.153-10.387c0-6.327 12.307-14.233 12.307-14.233z"></path>
</svg>
