<!-- Generated by IcoMoon.io -->
<svg version="1.1" xmlns="http://www.w3.org/2000/svg" width="164" height="160" viewBox="0 0 164 160">
<title></title>
<g id="icomoon-ignore">
</g>
<path fill="#261300" d="M6.838 6.838h150.427v146.325h-150.427v-146.325z"></path>
<path fill="#ff7c00" d="M0 0v160h164.103v-160h-164.103zM6.838 6.838h150.427v146.325h-150.427v-146.325z"></path>
<path fill="#ff7c00" d="M56.957 90.598l-5.402 20.513c-0.137 0.547-0.342 0.684-1.026 0.684h-10.051c-0.684 0-0.82-0.205-0.684-1.026l19.419-67.966c0.342-1.231 0.547-2.325 0.684-5.675 0-0.479 0.205-0.684 0.547-0.684h14.359c0.479 0 0.684 0.137 0.82 0.684l21.744 73.778c0.137 0.547 0 0.889-0.547 0.889h-11.35c-0.547 0-0.889-0.137-1.026-0.615l-5.675-20.581h-21.812zM75.966 79.521c-1.915-7.59-6.427-24.137-8.137-32.137h-0.137c-1.436 8-5.060 21.538-7.932 32.137h16.205zM106.735 41.504c0-4.376 3.077-6.974 6.974-6.974 4.171 0 6.974 2.803 6.974 6.974 0 4.513-2.94 6.974-7.111 6.974-3.966 0-6.838-2.462-6.838-6.974v0zM107.556 57.026c0-0.547 0.205-0.82 0.82-0.82h10.735c0.547 0 0.82 0.205 0.82 0.82v53.949c0 0.547-0.137 0.82-0.82 0.82h-10.598c-0.684 0-0.889-0.342-0.889-0.889v-53.88z"></path>
</svg>
