<svg xmlns="http://www.w3.org/2000/svg" viewBox="0 0 460.94 264.05"><title>Asset 1</title><path d="M14.4,86.4c57.27,42,46.6,30.16,282.47,31.59h0s0,25.3,0,56.42h-.08v-.14c-30.36-.05-108,0-108,0V170a63.63,63.63,0,0,0-4.64-23.76l-6.7-16.56-6.78,16.73a63.69,63.69,0,0,0-4.64,23.2l-.05,4.7-45.53,0a63.64,63.64,0,0,0-18.89,2.89c-11.37,3.55-29.35,9.16-30.5,9.43h0l-.1,0c1,.24,18.94,5.84,30.3,9.4a63.37,63.37,0,0,0,19,2.92h44.73l-.74,84.84a63.57,63.57,0,0,0,9.81,34.49l3.34,5.3,4.05-7.62A63.62,63.62,0,0,0,189,286.78l.84-87.79h107v-.16h0c-.4,21.5-1.15,81.41-1.49,109.16a63.54,63.54,0,0,0,5.92,27.58c3.39,7.29,6.93,14.9,6.93,14.88s3.65-7.54,7.1-14.72A63.64,63.64,0,0,0,321.6,309c.29-22.82.72-69.55,0-111.64,8-.69,28.34-.46,40.82-.22a63.92,63.92,0,0,0,20.41-3l23.89-7.57-.06-.06h0L383,179.05a63.71,63.71,0,0,0-20.51-3c-12.53.23-32.87.47-40.94-.23V118s62.11.12,68,0c22.17-.46,65.69-16.42,85.77-31.57" transform="translate(-14.4 -86.4)"/></svg>